<svg width="95" height="14" viewBox="0 0 95 14" fill="none" xmlns="http://www.w3.org/2000/svg">
<path d="M9.432 0.489999V2.164H6.102V13H4.05V2.164H0.702V0.489999H9.432ZM15.8122 13.162C14.8762 13.162 14.0302 12.952 13.2742 12.532C12.5182 12.1 11.9242 11.5 11.4922 10.732C11.0602 9.952 10.8442 9.052 10.8442 8.032C10.8442 7.024 11.0662 6.13 11.5102 5.35C11.9542 4.57 12.5602 3.97 13.3282 3.55C14.0962 3.13 14.9542 2.92 15.9022 2.92C16.8502 2.92 17.7082 3.13 18.4762 3.55C19.2442 3.97 19.8502 4.57 20.2942 5.35C20.7382 6.13 20.9602 7.024 20.9602 8.032C20.9602 9.04 20.7322 9.934 20.2762 10.714C19.8202 11.494 19.1962 12.1 18.4042 12.532C17.6242 12.952 16.7602 13.162 15.8122 13.162ZM15.8122 11.38C16.3402 11.38 16.8322 11.254 17.2882 11.002C17.7562 10.75 18.1342 10.372 18.4222 9.868C18.7102 9.364 18.8542 8.752 18.8542 8.032C18.8542 7.312 18.7162 6.706 18.4402 6.214C18.1642 5.71 17.7982 5.332 17.3422 5.08C16.8862 4.828 16.3942 4.702 15.8662 4.702C15.3382 4.702 14.8462 4.828 14.3902 5.08C13.9462 5.332 13.5922 5.71 13.3282 6.214C13.0642 6.706 12.9322 7.312 12.9322 8.032C12.9322 9.1 13.2022 9.928 13.7422 10.516C14.2942 11.092 14.9842 11.38 15.8122 11.38ZM27.2907 13.162C26.3547 13.162 25.5087 12.952 24.7527 12.532C23.9967 12.1 23.4027 11.5 22.9707 10.732C22.5387 9.952 22.3227 9.052 22.3227 8.032C22.3227 7.024 22.5447 6.13 22.9887 5.35C23.4327 4.57 24.0387 3.97 24.8067 3.55C25.5747 3.13 26.4327 2.92 27.3807 2.92C28.3287 2.92 29.1867 3.13 29.9547 3.55C30.7227 3.97 31.3287 4.57 31.7727 5.35C32.2167 6.13 32.4387 7.024 32.4387 8.032C32.4387 9.04 32.2107 9.934 31.7547 10.714C31.2987 11.494 30.6747 12.1 29.8827 12.532C29.1027 12.952 28.2387 13.162 27.2907 13.162ZM27.2907 11.38C27.8187 11.38 28.3107 11.254 28.7667 11.002C29.2347 10.75 29.6127 10.372 29.9007 9.868C30.1887 9.364 30.3327 8.752 30.3327 8.032C30.3327 7.312 30.1947 6.706 29.9187 6.214C29.6427 5.71 29.2767 5.332 28.8207 5.08C28.3647 4.828 27.8727 4.702 27.3447 4.702C26.8167 4.702 26.3247 4.828 25.8687 5.08C25.4247 5.332 25.0707 5.71 24.8067 6.214C24.5427 6.706 24.4107 7.312 24.4107 8.032C24.4107 9.1 24.6807 9.928 25.2207 10.516C25.7727 11.092 26.4627 11.38 27.2907 11.38Z" fill="#A7586C"/>
<path d="M43.5572 7.798C43.5572 8.17 43.5332 8.506 43.4852 8.806H35.9072C35.9672 9.598 36.2612 10.234 36.7892 10.714C37.3172 11.194 37.9652 11.434 38.7332 11.434C39.8372 11.434 40.6172 10.972 41.0732 10.048H43.2872C42.9872 10.96 42.4412 11.71 41.6492 12.298C40.8692 12.874 39.8972 13.162 38.7332 13.162C37.7852 13.162 36.9332 12.952 36.1772 12.532C35.4332 12.1 34.8452 11.5 34.4132 10.732C33.9932 9.952 33.7832 9.052 33.7832 8.032C33.7832 7.012 33.9872 6.118 34.3952 5.35C34.8152 4.57 35.3972 3.97 36.1412 3.55C36.8972 3.13 37.7612 2.92 38.7332 2.92C39.6692 2.92 40.5032 3.124 41.2352 3.532C41.9672 3.94 42.5372 4.516 42.9452 5.26C43.3532 5.992 43.5572 6.838 43.5572 7.798ZM41.4152 7.15C41.4032 6.394 41.1332 5.788 40.6052 5.332C40.0772 4.876 39.4232 4.648 38.6432 4.648C37.9352 4.648 37.3292 4.876 36.8252 5.332C36.3212 5.776 36.0212 6.382 35.9252 7.15H41.4152ZM50.5806 2.92C51.3606 2.92 52.0566 3.082 52.6686 3.406C53.2926 3.73 53.7786 4.21 54.1266 4.846C54.4746 5.482 54.6486 6.25 54.6486 7.15V13H52.6146V7.456C52.6146 6.568 52.3926 5.89 51.9486 5.422C51.5046 4.942 50.8986 4.702 50.1306 4.702C49.3626 4.702 48.7506 4.942 48.2946 5.422C47.8506 5.89 47.6286 6.568 47.6286 7.456V13H45.5766V3.082H47.6286V4.216C47.9646 3.808 48.3906 3.49 48.9066 3.262C49.4346 3.034 49.9926 2.92 50.5806 2.92ZM60.866 13.162C60.086 13.162 59.384 13.024 58.76 12.748C58.148 12.46 57.662 12.076 57.302 11.596C56.942 11.104 56.75 10.558 56.726 9.958H58.85C58.886 10.378 59.084 10.732 59.444 11.02C59.816 11.296 60.278 11.434 60.83 11.434C61.406 11.434 61.85 11.326 62.162 11.11C62.486 10.882 62.648 10.594 62.648 10.246C62.648 9.874 62.468 9.598 62.108 9.418C61.76 9.238 61.202 9.04 60.434 8.824C59.69 8.62 59.084 8.422 58.616 8.23C58.148 8.038 57.74 7.744 57.392 7.348C57.056 6.952 56.888 6.43 56.888 5.782C56.888 5.254 57.044 4.774 57.356 4.342C57.668 3.898 58.112 3.55 58.688 3.298C59.276 3.046 59.948 2.92 60.704 2.92C61.832 2.92 62.738 3.208 63.422 3.784C64.118 4.348 64.49 5.122 64.538 6.106H62.486C62.45 5.662 62.27 5.308 61.946 5.044C61.622 4.78 61.184 4.648 60.632 4.648C60.092 4.648 59.678 4.75 59.39 4.954C59.102 5.158 58.958 5.428 58.958 5.764C58.958 6.028 59.054 6.25 59.246 6.43C59.438 6.61 59.672 6.754 59.948 6.862C60.224 6.958 60.632 7.084 61.172 7.24C61.892 7.432 62.48 7.63 62.936 7.834C63.404 8.026 63.806 8.314 64.142 8.698C64.478 9.082 64.652 9.592 64.664 10.228C64.664 10.792 64.508 11.296 64.196 11.74C63.884 12.184 63.44 12.532 62.864 12.784C62.3 13.036 61.634 13.162 60.866 13.162ZM75.8633 3.082V13H73.8113V11.83C73.4873 12.238 73.0613 12.562 72.5333 12.802C72.0173 13.03 71.4653 13.144 70.8773 13.144C70.0973 13.144 69.3953 12.982 68.7713 12.658C68.1593 12.334 67.6733 11.854 67.3133 11.218C66.9653 10.582 66.7913 9.814 66.7913 8.914V3.082H68.8253V8.608C68.8253 9.496 69.0473 10.18 69.4913 10.66C69.9353 11.128 70.5413 11.362 71.3093 11.362C72.0773 11.362 72.6833 11.128 73.1273 10.66C73.5833 10.18 73.8113 9.496 73.8113 8.608V3.082H75.8633ZM80.6227 4.522C80.9227 4.018 81.3187 3.628 81.8107 3.352C82.3147 3.064 82.9087 2.92 83.5927 2.92V5.044H83.0707C82.2667 5.044 81.6547 5.248 81.2347 5.656C80.8267 6.064 80.6227 6.772 80.6227 7.78V13H78.5707V3.082H80.6227V4.522ZM94.5689 7.798C94.5689 8.17 94.5449 8.506 94.4969 8.806H86.9189C86.9789 9.598 87.2729 10.234 87.8009 10.714C88.3289 11.194 88.9769 11.434 89.7449 11.434C90.8489 11.434 91.6289 10.972 92.0849 10.048H94.2989C93.9989 10.96 93.4529 11.71 92.6609 12.298C91.8809 12.874 90.9089 13.162 89.7449 13.162C88.7969 13.162 87.9449 12.952 87.1889 12.532C86.4449 12.1 85.8569 11.5 85.4249 10.732C85.0049 9.952 84.7949 9.052 84.7949 8.032C84.7949 7.012 84.9989 6.118 85.4069 5.35C85.8269 4.57 86.4089 3.97 87.1529 3.55C87.9089 3.13 88.7729 2.92 89.7449 2.92C90.6809 2.92 91.5149 3.124 92.2469 3.532C92.9789 3.94 93.5489 4.516 93.9569 5.26C94.3649 5.992 94.5689 6.838 94.5689 7.798ZM92.4269 7.15C92.4149 6.394 92.1449 5.788 91.6169 5.332C91.0889 4.876 90.4349 4.648 89.6549 4.648C88.9469 4.648 88.3409 4.876 87.8369 5.332C87.3329 5.776 87.0329 6.382 86.9369 7.15H92.4269Z" fill="#C4C4C4"/>
</svg>
